<?xml version="1.0" encoding="utf-8"?>
<!-- Generator: Adobe Illustrator 25.4.1, SVG Export Plug-In . SVG Version: 6.00 Build 0)  -->
<svg version="1.1" id="Layer_1" xmlns="http://www.w3.org/2000/svg" xmlns:xlink="http://www.w3.org/1999/xlink" x="0px" y="0px"
	 viewBox="0 0 740.6 452.6" style="enable-background:new 0 0 740.6 452.6;" xml:space="preserve">
<style type="text/css">
	.st0{fill:#FFFFFF;}
</style>
<g>
	<g>
		<path class="st0" d="M258.8,214.1v90.6l-20.9,20.9H203l-20.9-20.9v-90.6H210v87.1h20.9v-87.1H258.8z"/>
		<path class="st0" d="M349.4,283.8v20.9l-20.9,20.9h-34.9l-20.9-20.9V235l20.9-20.9h34.9l20.9,20.9v20.9h-27.9v-17.4h-20.9v62.7
			h20.9v-17.4L349.4,283.8L349.4,283.8z"/>
		<path class="st0" d="M415.6,325.6l-3.5-24.4h-20.9l-3.5,24.4h-27.9l20.9-111.5h41.8l20.9,111.5H415.6z M394.7,280.3h13.8
			l-6.8-41.6L394.7,280.3z"/>
		<path class="st0" d="M475.1,280.3l-21-20.9V235l20.9-20.9h34.9l20.9,20.9v13.9h-27.6v-10.5H482v20.9h28l20.8,20.9v24.4l-20.9,20.9
			H475l-20.9-20.9v-13.9H482v10.5h21.2v-20.9H475.1z"/>
	</g>
	<path class="st0" d="M419.5,404.3c-182.4,63.1-351.7,63.6-403.6,5.6c-5.8-6.5-10.2-13.6-12.9-21.5c-0.8-2.2-1.3-4.4-1.9-6.7
		C0.3,377-0.2,370.4,0,362c0.5-20.3,5.1-51.3,19.7-91.9c14.3-40,42-125.2,80.8-184.2L65.4,70.1L162.9,0l12,119.5l-33.1-14.9
		c-7.1,15.3-39.7,86.6-55,136.5c-15.1,49.2-24.1,102.4-5,129.6c0.1,0.1,0.2,0.2,0.2,0.3v0.1c3.7,5.5,8.5,10.4,14.3,14.8
		c50.7,38.4,178.9,35.3,316.3-12.3C576.2,317,690.8,219,668.5,154.7c-22.2-64.3-172.8-70.6-336.4-14.1
		C215.7,181,124.2,242.2,89.1,297.3c3.7-22.4,10.7-47.6,19.3-72.5c55.4-39.7,128.7-77.3,212.3-106.2
		c202.8-70.1,389.2-63.1,416.5,15.8S622.3,334.2,419.5,404.3z"/>
</g>
</svg>
